<?xml version="1.0" encoding="utf-8"?>
<!-- Generator: Adobe Illustrator 16.0.0, SVG Export Plug-In . SVG Version: 6.00 Build 0)  -->
<!DOCTYPE svg PUBLIC "-//W3C//DTD SVG 1.1//EN" "http://www.w3.org/Graphics/SVG/1.1/DTD/svg11.dtd">
<?xml-stylesheet type="text/css" href="../Css/svg-stylesheet.css" ?>
<svg class="donuts" version="1.1" id="Layer_5" xmlns="http://www.w3.org/2000/svg" xmlns:xlink="http://www.w3.org/1999/xlink" x="0px" y="0px" width="333.5px" height="348px" viewBox="0 0 307.5 348" enable-background="new 0 0 307.5 348" xml:space="preserve">
<pattern x="-146.5" y="680" width="72" height="71.998" patternUnits="userSpaceOnUse" id="New_Pattern_Swatch_3" viewBox="4.177 -76.306 72 71.998" overflow="visible">
	<g>
		<polygon fill-rule="evenodd" clip-rule="evenodd" fill="none" points="76.177,-4.308 4.177,-4.308 4.177,-76.306 76.177,-76.306 
					"/>
		<polygon fill-rule="evenodd" clip-rule="evenodd" fill="#FFFFFF" points="4.177,-4.308 4.177,-76.306 76.177,-76.306 
			76.177,-4.306 		"/>
		<polygon fill-rule="evenodd" clip-rule="evenodd" fill="#77BC1F" points="78.804,-1.681 1.177,-1.681 1.177,-79.306 
			78.804,-79.306 		"/>
		
			<line fill-rule="evenodd" clip-rule="evenodd" fill="none" stroke="#FFFFFE" stroke-width="0.5" x1="0.177" y1="-76.306" x2="76.177" y2="-0.306"/>
		
			<line fill-rule="evenodd" clip-rule="evenodd" fill="none" stroke="#FFFFFE" stroke-width="0.5" x1="44.177" y1="-80.306" x2="80.177" y2="-44.306"/>
		
			<line fill-rule="evenodd" clip-rule="evenodd" fill="none" stroke="#FFFFFE" stroke-width="0.5" x1="28.177" y1="-80.306" x2="80.177" y2="-28.306"/>
		
			<line fill-rule="evenodd" clip-rule="evenodd" fill="none" stroke="#FFFFFE" stroke-width="0.5" x1="0.177" y1="-64.306" x2="64.177" y2="-0.306"/>
		
			<line fill-rule="evenodd" clip-rule="evenodd" fill="none" stroke="#FFFFFE" stroke-width="0.5" x1="4.177" y1="-80.306" x2="80.177" y2="-4.308"/>
		
			<line fill-rule="evenodd" clip-rule="evenodd" fill="none" stroke="#FFFFFE" stroke-width="0.5" x1="0.177" y1="-56.306" x2="56.177" y2="-0.306"/>
		
			<line fill-rule="evenodd" clip-rule="evenodd" fill="none" stroke="#FFFFFE" stroke-width="0.5" x1="0.177" y1="-80.306" x2="80.177" y2="-0.306"/>
		
			<line fill-rule="evenodd" clip-rule="evenodd" fill="none" stroke="#FFFFFE" stroke-width="0.5" x1="52.195" y1="-80.685" x2="80.177" y2="-52.306"/>
		
			<line fill-rule="evenodd" clip-rule="evenodd" fill="none" stroke="#FFFFFE" stroke-width="0.5" x1="36.177" y1="-80.306" x2="80.177" y2="-36.306"/>
		
			<line fill-rule="evenodd" clip-rule="evenodd" fill="none" stroke="#FFFFFE" stroke-width="0.5" x1="0.177" y1="-72.306" x2="72.681" y2="-0.179"/>
		
			<line fill-rule="evenodd" clip-rule="evenodd" fill="none" stroke="#FFFFFE" stroke-width="0.5" x1="20.177" y1="-80.306" x2="80.177" y2="-20.306"/>
		
			<line fill-rule="evenodd" clip-rule="evenodd" fill="none" stroke="#FFFFFE" stroke-width="0.5" x1="40.177" y1="-80.306" x2="80.177" y2="-40.306"/>
		
			<line fill-rule="evenodd" clip-rule="evenodd" fill="none" stroke="#FFFFFE" stroke-width="0.5" x1="56.177" y1="-80.306" x2="80.177" y2="-56.306"/>
		
			<line fill-rule="evenodd" clip-rule="evenodd" fill="none" stroke="#FFFFFE" stroke-width="0.5" x1="24.177" y1="-80.306" x2="80.177" y2="-24.306"/>
		
			<line fill-rule="evenodd" clip-rule="evenodd" fill="none" stroke="#FFFFFE" stroke-width="0.5" x1="48.177" y1="-80.306" x2="80.177" y2="-48.306"/>
		
			<line fill-rule="evenodd" clip-rule="evenodd" fill="none" stroke="#FFFFFE" stroke-width="0.5" x1="32.177" y1="-80.306" x2="80.177" y2="-32.306"/>
		
			<line fill-rule="evenodd" clip-rule="evenodd" fill="none" stroke="#FFFFFE" stroke-width="0.5" x1="16.177" y1="-80.306" x2="80.177" y2="-16.306"/>
		
			<line fill-rule="evenodd" clip-rule="evenodd" fill="none" stroke="#FFFFFE" stroke-width="0.5" x1="0.177" y1="-60.306" x2="60.177" y2="-0.306"/>
		
			<line fill-rule="evenodd" clip-rule="evenodd" fill="none" stroke="#FFFFFE" stroke-width="0.5" x1="0.177" y1="-12.306" x2="12.177" y2="-0.306"/>
		
			<line fill-rule="evenodd" clip-rule="evenodd" fill="none" stroke="#FFFFFE" stroke-width="0.5" x1="0.177" y1="-52.306" x2="52.177" y2="-0.306"/>
		
			<line fill-rule="evenodd" clip-rule="evenodd" fill="none" stroke="#FFFFFE" stroke-width="0.5" x1="0.177" y1="-36.306" x2="36.177" y2="-0.306"/>
		
			<line fill-rule="evenodd" clip-rule="evenodd" fill="none" stroke="#FFFFFE" stroke-width="0.5" x1="0.177" y1="-20.306" x2="20.177" y2="-0.306"/>
		
			<line fill-rule="evenodd" clip-rule="evenodd" fill="none" stroke="#FFFFFE" stroke-width="0.5" x1="0.177" y1="-16.306" x2="16.177" y2="-0.306"/>
		
			<line fill-rule="evenodd" clip-rule="evenodd" fill="none" stroke="#FFFFFE" stroke-width="0.5" x1="0.177" y1="-44.306" x2="44.177" y2="-0.306"/>
		
			<line fill-rule="evenodd" clip-rule="evenodd" fill="none" stroke="#FFFFFE" stroke-width="0.5" x1="0.177" y1="-8.308" x2="8.177" y2="-0.306"/>
		
			<line fill-rule="evenodd" clip-rule="evenodd" fill="none" stroke="#FFFFFE" stroke-width="0.5" x1="0.177" y1="-28.306" x2="28.177" y2="-0.306"/>
		
			<line fill-rule="evenodd" clip-rule="evenodd" fill="none" stroke="#FFFFFE" stroke-width="0.5" x1="0.318" y1="-48.45" x2="48.594" y2="-0.177"/>
		
			<line fill-rule="evenodd" clip-rule="evenodd" fill="none" stroke="#FFFFFE" stroke-width="0.5" x1="0.177" y1="-32.306" x2="32.177" y2="-0.306"/>
		
			<line fill-rule="evenodd" clip-rule="evenodd" fill="none" stroke="#FFFFFE" stroke-width="0.5" x1="0.177" y1="-40.306" x2="40.177" y2="-0.306"/>
		
			<line fill-rule="evenodd" clip-rule="evenodd" fill="none" stroke="#FFFFFE" stroke-width="0.5" x1="0.177" y1="-24.306" x2="24.177" y2="-0.306"/>
		
			<line fill-rule="evenodd" clip-rule="evenodd" fill="none" stroke="#FFFFFE" stroke-width="0.5" x1="0.177" y1="-68.306" x2="68.177" y2="-0.306"/>
		
			<line fill-rule="evenodd" clip-rule="evenodd" fill="none" stroke="#FFFFFE" stroke-width="0.5" x1="8.177" y1="-80.306" x2="80.177" y2="-8.308"/>
		
			<line fill-rule="evenodd" clip-rule="evenodd" fill="none" stroke="#FFFFFE" stroke-width="0.5" x1="12.177" y1="-80.306" x2="80.574" y2="-12.358"/>
		
			<line fill-rule="evenodd" clip-rule="evenodd" fill="none" stroke="#FFFFFE" stroke-width="0.5" x1="64.177" y1="-80.306" x2="80.177" y2="-64.306"/>
		
			<line fill-rule="evenodd" clip-rule="evenodd" fill="none" stroke="#FFFFFE" stroke-width="0.5" x1="60.177" y1="-80.306" x2="80.177" y2="-60.306"/>
		
			<line fill-rule="evenodd" clip-rule="evenodd" fill="none" stroke="#FFFFFE" stroke-width="0.5" x1="68.177" y1="-80.306" x2="80.177" y2="-68.306"/>
		
			<line fill-rule="evenodd" clip-rule="evenodd" fill="none" stroke="#FFFFFE" stroke-width="0.5" x1="72.177" y1="-80.306" x2="80.178" y2="-72.306"/>
		
			<line fill-rule="evenodd" clip-rule="evenodd" fill="none" stroke="#FFFFFE" stroke-width="0.5" x1="0.177" y1="-4.556" x2="76.177" y2="-80.554"/>
		
			<line fill-rule="evenodd" clip-rule="evenodd" fill="none" stroke="#FFFFFE" stroke-width="0.5" x1="44.177" y1="-0.554" x2="80.177" y2="-36.554"/>
		
			<line fill-rule="evenodd" clip-rule="evenodd" fill="none" stroke="#FFFFFE" stroke-width="0.5" x1="28.177" y1="-0.554" x2="80.177" y2="-52.554"/>
		
			<line fill-rule="evenodd" clip-rule="evenodd" fill="none" stroke="#FFFFFE" stroke-width="0.5" x1="0.177" y1="-16.556" x2="64.177" y2="-80.554"/>
		
			<line fill-rule="evenodd" clip-rule="evenodd" fill="none" stroke="#FFFFFE" stroke-width="0.5" x1="4.177" y1="-0.554" x2="80.177" y2="-76.554"/>
		
			<line fill-rule="evenodd" clip-rule="evenodd" fill="none" stroke="#FFFFFE" stroke-width="0.5" x1="0.177" y1="-24.556" x2="56.177" y2="-80.554"/>
		
			<line fill-rule="evenodd" clip-rule="evenodd" fill="none" stroke="#FFFFFE" stroke-width="0.5" x1="0.177" y1="-0.554" x2="80.177" y2="-80.554"/>
		
			<line fill-rule="evenodd" clip-rule="evenodd" fill="none" stroke="#FFFFFE" stroke-width="0.5" x1="52.195" y1="-0.177" x2="80.177" y2="-28.556"/>
		
			<line fill-rule="evenodd" clip-rule="evenodd" fill="none" stroke="#FFFFFE" stroke-width="0.5" x1="36.177" y1="-0.554" x2="80.177" y2="-44.554"/>
		
			<line fill-rule="evenodd" clip-rule="evenodd" fill="none" stroke="#FFFFFE" stroke-width="0.5" x1="0.177" y1="-8.556" x2="72.681" y2="-80.681"/>
		
			<line fill-rule="evenodd" clip-rule="evenodd" fill="none" stroke="#FFFFFE" stroke-width="0.5" x1="20.177" y1="-0.554" x2="80.177" y2="-60.554"/>
		
			<line fill-rule="evenodd" clip-rule="evenodd" fill="none" stroke="#FFFFFE" stroke-width="0.5" x1="40.177" y1="-0.554" x2="80.177" y2="-40.554"/>
		
			<line fill-rule="evenodd" clip-rule="evenodd" fill="none" stroke="#FFFFFE" stroke-width="0.5" x1="56.177" y1="-0.554" x2="80.177" y2="-24.556"/>
		
			<line fill-rule="evenodd" clip-rule="evenodd" fill="none" stroke="#FFFFFE" stroke-width="0.5" x1="24.177" y1="-0.554" x2="80.177" y2="-56.554"/>
		
			<line fill-rule="evenodd" clip-rule="evenodd" fill="none" stroke="#FFFFFE" stroke-width="0.5" x1="48.177" y1="-0.554" x2="80.177" y2="-32.556"/>
		
			<line fill-rule="evenodd" clip-rule="evenodd" fill="none" stroke="#FFFFFE" stroke-width="0.5" x1="32.177" y1="-0.554" x2="80.177" y2="-48.554"/>
		
			<line fill-rule="evenodd" clip-rule="evenodd" fill="none" stroke="#FFFFFE" stroke-width="0.5" x1="16.177" y1="-0.554" x2="80.177" y2="-64.554"/>
		
			<line fill-rule="evenodd" clip-rule="evenodd" fill="none" stroke="#FFFFFE" stroke-width="0.5" x1="0.177" y1="-20.556" x2="60.177" y2="-80.554"/>
		
			<line fill-rule="evenodd" clip-rule="evenodd" fill="none" stroke="#FFFFFE" stroke-width="0.5" x1="0.177" y1="-68.554" x2="12.177" y2="-80.554"/>
		
			<line fill-rule="evenodd" clip-rule="evenodd" fill="none" stroke="#FFFFFE" stroke-width="0.5" x1="0.177" y1="-28.556" x2="52.177" y2="-80.554"/>
		
			<line fill-rule="evenodd" clip-rule="evenodd" fill="none" stroke="#FFFFFE" stroke-width="0.5" x1="0.177" y1="-44.554" x2="36.177" y2="-80.554"/>
		
			<line fill-rule="evenodd" clip-rule="evenodd" fill="none" stroke="#FFFFFE" stroke-width="0.5" x1="0.177" y1="-60.554" x2="20.177" y2="-80.554"/>
		
			<line fill-rule="evenodd" clip-rule="evenodd" fill="none" stroke="#FFFFFE" stroke-width="0.5" x1="0.177" y1="-64.554" x2="16.177" y2="-80.554"/>
		
			<line fill-rule="evenodd" clip-rule="evenodd" fill="none" stroke="#FFFFFE" stroke-width="0.5" x1="0.177" y1="-36.554" x2="44.177" y2="-80.554"/>
		
			<line fill-rule="evenodd" clip-rule="evenodd" fill="none" stroke="#FFFFFE" stroke-width="0.5" x1="0.177" y1="-72.554" x2="8.177" y2="-80.554"/>
		
			<line fill-rule="evenodd" clip-rule="evenodd" fill="none" stroke="#FFFFFE" stroke-width="0.5" x1="0.177" y1="-52.554" x2="28.177" y2="-80.554"/>
		
			<line fill-rule="evenodd" clip-rule="evenodd" fill="none" stroke="#FFFFFE" stroke-width="0.5" x1="0.318" y1="-32.411" x2="48.594" y2="-80.685"/>
		
			<line fill-rule="evenodd" clip-rule="evenodd" fill="none" stroke="#FFFFFE" stroke-width="0.5" x1="0.177" y1="-48.554" x2="32.177" y2="-80.554"/>
		
			<line fill-rule="evenodd" clip-rule="evenodd" fill="none" stroke="#FFFFFE" stroke-width="0.5" x1="0.177" y1="-40.554" x2="40.177" y2="-80.554"/>
		
			<line fill-rule="evenodd" clip-rule="evenodd" fill="none" stroke="#FFFFFE" stroke-width="0.5" x1="0.177" y1="-56.554" x2="24.177" y2="-80.554"/>
		
			<line fill-rule="evenodd" clip-rule="evenodd" fill="none" stroke="#FFFFFE" stroke-width="0.5" x1="0.177" y1="-12.556" x2="68.177" y2="-80.554"/>
		
			<line fill-rule="evenodd" clip-rule="evenodd" fill="none" stroke="#FFFFFE" stroke-width="0.5" x1="8.177" y1="-0.554" x2="80.177" y2="-72.554"/>
		
			<line fill-rule="evenodd" clip-rule="evenodd" fill="none" stroke="#FFFFFE" stroke-width="0.5" x1="12.177" y1="-0.554" x2="80.574" y2="-68.501"/>
		
			<line fill-rule="evenodd" clip-rule="evenodd" fill="none" stroke="#FFFFFE" stroke-width="0.5" x1="64.177" y1="-0.554" x2="80.177" y2="-16.556"/>
		
			<line fill-rule="evenodd" clip-rule="evenodd" fill="none" stroke="#FFFFFE" stroke-width="0.5" x1="60.177" y1="-0.554" x2="80.177" y2="-20.556"/>
		
			<line fill-rule="evenodd" clip-rule="evenodd" fill="none" stroke="#FFFFFE" stroke-width="0.5" x1="68.177" y1="-0.554" x2="80.177" y2="-12.556"/>
		
			<line fill-rule="evenodd" clip-rule="evenodd" fill="none" stroke="#FFFFFE" stroke-width="0.5" x1="72.177" y1="-0.554" x2="80.178" y2="-8.556"/>
	</g>
</pattern>
<pattern x="-146.5" y="680" width="71.999" height="71.999" patternUnits="userSpaceOnUse" id="New_Pattern_Swatch_4" viewBox="4.308 -76.574 71.999 71.999" overflow="visible">
	<g>
		<polygon fill-rule="evenodd" clip-rule="evenodd" fill="none" points="4.308,-4.575 4.308,-76.573 76.307,-76.573 76.307,-4.575 
					"/>
		<polygon fill-rule="evenodd" clip-rule="evenodd" fill="#FFFFFE" points="1.535,-79.348 78.792,-79.348 78.792,-2.09 1.533,-2.09 
					"/>
		<polygon fill-rule="evenodd" clip-rule="evenodd" fill="none" points="4.308,-4.575 4.308,-76.573 76.307,-76.573 76.307,-4.575 
					"/>
		
			<line fill-rule="evenodd" clip-rule="evenodd" fill="none" stroke="#77BC1F" stroke-width="0.5" x1="76.307" y1="-80.573" x2="0.308" y2="-4.575"/>
		
			<line fill-rule="evenodd" clip-rule="evenodd" fill="none" stroke="#77BC1F" stroke-width="0.5" x1="80.307" y1="-36.573" x2="44.307" y2="-0.573"/>
		
			<line fill-rule="evenodd" clip-rule="evenodd" fill="none" stroke="#77BC1F" stroke-width="0.5" x1="80.307" y1="-52.573" x2="28.307" y2="-0.573"/>
		
			<line fill-rule="evenodd" clip-rule="evenodd" fill="none" stroke="#77BC1F" stroke-width="0.5" x1="64.307" y1="-80.573" x2="0.308" y2="-16.573"/>
		
			<line fill-rule="evenodd" clip-rule="evenodd" fill="none" stroke="#77BC1F" stroke-width="0.5" x1="80.307" y1="-76.573" x2="4.308" y2="-0.573"/>
		
			<line fill-rule="evenodd" clip-rule="evenodd" fill="none" stroke="#77BC1F" stroke-width="0.5" x1="56.307" y1="-80.573" x2="0.308" y2="-24.573"/>
		
			<line fill-rule="evenodd" clip-rule="evenodd" fill="none" stroke="#77BC1F" stroke-width="0.5" x1="80.307" y1="-80.573" x2="0.308" y2="-0.573"/>
		
			<line fill-rule="evenodd" clip-rule="evenodd" fill="none" stroke="#77BC1F" stroke-width="0.5" x1="80.686" y1="-28.556" x2="52.307" y2="-0.573"/>
		
			<line fill-rule="evenodd" clip-rule="evenodd" fill="none" stroke="#77BC1F" stroke-width="0.5" x1="80.307" y1="-44.573" x2="36.307" y2="-0.573"/>
		
			<line fill-rule="evenodd" clip-rule="evenodd" fill="none" stroke="#77BC1F" stroke-width="0.5" x1="72.307" y1="-80.573" x2="0.181" y2="-8.069"/>
		
			<line fill-rule="evenodd" clip-rule="evenodd" fill="none" stroke="#77BC1F" stroke-width="0.5" x1="80.307" y1="-60.573" x2="20.307" y2="-0.573"/>
		
			<line fill-rule="evenodd" clip-rule="evenodd" fill="none" stroke="#77BC1F" stroke-width="0.5" x1="80.307" y1="-40.573" x2="40.307" y2="-0.573"/>
		
			<line fill-rule="evenodd" clip-rule="evenodd" fill="none" stroke="#77BC1F" stroke-width="0.5" x1="80.307" y1="-24.573" x2="56.307" y2="-0.573"/>
		
			<line fill-rule="evenodd" clip-rule="evenodd" fill="none" stroke="#77BC1F" stroke-width="0.5" x1="80.307" y1="-56.573" x2="24.307" y2="-0.573"/>
		
			<line fill-rule="evenodd" clip-rule="evenodd" fill="none" stroke="#77BC1F" stroke-width="0.5" x1="80.307" y1="-32.573" x2="48.307" y2="-0.573"/>
		
			<line fill-rule="evenodd" clip-rule="evenodd" fill="none" stroke="#77BC1F" stroke-width="0.5" x1="80.307" y1="-48.573" x2="32.307" y2="-0.573"/>
		
			<line fill-rule="evenodd" clip-rule="evenodd" fill="none" stroke="#77BC1F" stroke-width="0.5" x1="80.307" y1="-64.573" x2="16.307" y2="-0.573"/>
		
			<line fill-rule="evenodd" clip-rule="evenodd" fill="none" stroke="#77BC1F" stroke-width="0.5" x1="60.307" y1="-80.573" x2="0.308" y2="-20.573"/>
		
			<line fill-rule="evenodd" clip-rule="evenodd" fill="none" stroke="#77BC1F" stroke-width="0.5" x1="12.308" y1="-80.573" x2="0.308" y2="-68.573"/>
		
			<line fill-rule="evenodd" clip-rule="evenodd" fill="none" stroke="#77BC1F" stroke-width="0.5" x1="52.307" y1="-80.573" x2="0.308" y2="-28.573"/>
		
			<line fill-rule="evenodd" clip-rule="evenodd" fill="none" stroke="#77BC1F" stroke-width="0.5" x1="36.307" y1="-80.573" x2="0.308" y2="-44.573"/>
		
			<line fill-rule="evenodd" clip-rule="evenodd" fill="none" stroke="#77BC1F" stroke-width="0.5" x1="20.307" y1="-80.573" x2="0.308" y2="-60.573"/>
		
			<line fill-rule="evenodd" clip-rule="evenodd" fill="none" stroke="#77BC1F" stroke-width="0.5" x1="16.307" y1="-80.573" x2="0.308" y2="-64.573"/>
		
			<line fill-rule="evenodd" clip-rule="evenodd" fill="none" stroke="#77BC1F" stroke-width="0.5" x1="44.307" y1="-80.573" x2="0.308" y2="-36.573"/>
		
			<line fill-rule="evenodd" clip-rule="evenodd" fill="none" stroke="#77BC1F" stroke-width="0.5" x1="8.308" y1="-80.573" x2="0.308" y2="-72.573"/>
		
			<line fill-rule="evenodd" clip-rule="evenodd" fill="none" stroke="#77BC1F" stroke-width="0.5" x1="28.307" y1="-80.573" x2="0.308" y2="-52.573"/>
		
			<line fill-rule="evenodd" clip-rule="evenodd" fill="none" stroke="#77BC1F" stroke-width="0.5" x1="48.451" y1="-80.432" x2="0.177" y2="-32.156"/>
		
			<line fill-rule="evenodd" clip-rule="evenodd" fill="none" stroke="#77BC1F" stroke-width="0.5" x1="32.307" y1="-80.573" x2="0.308" y2="-48.573"/>
		
			<line fill-rule="evenodd" clip-rule="evenodd" fill="none" stroke="#77BC1F" stroke-width="0.5" x1="40.307" y1="-80.573" x2="0.308" y2="-40.573"/>
		
			<line fill-rule="evenodd" clip-rule="evenodd" fill="none" stroke="#77BC1F" stroke-width="0.5" x1="24.307" y1="-80.573" x2="0.308" y2="-56.573"/>
		
			<line fill-rule="evenodd" clip-rule="evenodd" fill="none" stroke="#77BC1F" stroke-width="0.5" x1="68.307" y1="-80.573" x2="0.308" y2="-12.573"/>
		
			<line fill-rule="evenodd" clip-rule="evenodd" fill="none" stroke="#77BC1F" stroke-width="0.5" x1="80.307" y1="-72.573" x2="8.308" y2="-0.573"/>
		
			<line fill-rule="evenodd" clip-rule="evenodd" fill="none" stroke="#77BC1F" stroke-width="0.5" x1="80.307" y1="-68.573" x2="12.358" y2="-0.177"/>
		
			<line fill-rule="evenodd" clip-rule="evenodd" fill="none" stroke="#77BC1F" stroke-width="0.5" x1="80.307" y1="-16.573" x2="64.307" y2="-0.573"/>
		
			<line fill-rule="evenodd" clip-rule="evenodd" fill="none" stroke="#77BC1F" stroke-width="0.5" x1="80.307" y1="-20.573" x2="60.307" y2="-0.573"/>
		
			<line fill-rule="evenodd" clip-rule="evenodd" fill="none" stroke="#77BC1F" stroke-width="0.5" x1="80.307" y1="-12.573" x2="68.307" y2="-0.573"/>
		
			<line fill-rule="evenodd" clip-rule="evenodd" fill="none" stroke="#77BC1F" stroke-width="0.5" x1="80.307" y1="-8.575" x2="72.307" y2="-0.573"/>
	</g>
</pattern>
<g>
	<g class="pie asian">
		<text transform="matrix(1 0 0 1 175.1074 289.4043)"><tspan x="0" y="0" font-family="'CronosPro-Regular'" font-size="14.5887">Asian/ </tspan><tspan x="0" y="17.507" font-family="'CronosPro-Regular'" font-size="14.5887">Pacific Islander (9%)</tspan></text>
	</g>
</g>
<g>
	<g class="pie black">
		<text transform="matrix(1 0 0 1 1.8184 286.418)" font-family="'CronosPro-Regular'" font-size="14.5887">Black (3%)</text>
	</g>
</g>
<g>
	<g class="pie white">
		<text transform="matrix(1 0 0 1 42.9805 305.2314)" font-family="'CronosPro-Regular'" font-size="14.5887">White (5%)</text>
	</g>
</g>
<g>
	<g class="pie ameIndian">
		<text transform="matrix(1 0 0 1 107.9678 324.8301)"><tspan x="0" y="0" font-family="'CronosPro-Regular'" font-size="14.5887">American Indian/ </tspan><tspan x="0" y="15.915" font-family="'CronosPro-Regular'" font-size="14.5887">Alaska Native (1%)</tspan></text>
	</g>
</g>
<g>
	<g class="pie hispanic">
		<text transform="matrix(1 0 0 1 79.2725 35.5293)" font-family="'CronosPro-Regular'" font-size="14.5887">Hispanic (82%)</text>
	</g>
</g>
<line class="pie asian" fill="none" stroke="#000000" stroke-width="0.5" stroke-miterlimit="2" x1="165.443" y1="277.059" x2="174.727" y2="283.47"/>
<line class="pie white" fill="none" stroke="#000000" stroke-width="0.5" stroke-miterlimit="2" x1="104.646" y1="281.68" x2="93.814" y2="293.396"/>
<line class="pie black" fill="none" stroke="#000000" stroke-width="0.5" stroke-miterlimit="2" x1="75.247" y1="272.828" x2="65.963" y2="281.448"/>
<line class="pie ameIndian" fill="none" stroke="#000000" stroke-width="0.5" stroke-miterlimit="2" x1="128.992" y1="283.122" x2="142.476" y2="312.741"/>
<pattern id="SVGID_1_" xlink:href="#New_Pattern_Swatch_4" patternTransform="matrix(1 0 0 1 -3.9961 7.5)">
</pattern>
<path class="pie white" fill-rule="evenodd" clip-rule="evenodd" fill="url(#SVGID_1_)" stroke="#000000" stroke-width="0.75" d="M125.318,162.238
	l-0.8,118.818c-13.063-0.215-24.533-2.096-36.951-6.266L125.318,162.238"/>
<path class="pie black" fill-rule="evenodd" clip-rule="evenodd" fill="#C9E1A5" stroke="#000000" stroke-width="0.75" d="M125.318,162.238
	L87.567,274.791c-7.509-2.415-13.633-5.097-20.668-9.01L125.318,162.238"/>
<path class="pie hispanic" fill-rule="evenodd" clip-rule="evenodd" fill="#8BC540" stroke="#000000" stroke-width="0.75" d="M125.318,162.238
	L66.899,265.781c-57.884-32.109-78.379-104.002-46.11-161.589c32.494-57.635,104.853-78,162.95-45.812
	c57.866,32.161,78.363,104.056,46.109,161.589c-8.938,15.757-20.203,28.277-35.021,38.74L125.318,162.238"/>
<pattern id="SVGID_2_" xlink:href="#New_Pattern_Swatch_3" patternTransform="matrix(1 0 0 1 68 7.5)">
</pattern>
<path class="pie asian" fill-rule="evenodd" clip-rule="evenodd" fill="url(#SVGID_2_)" stroke="#000000" stroke-width="0.75" d="M125.318,162.238
	l69.51,96.471c-18.588,13.315-39.82,20.751-62.654,22.082L125.318,162.238"/>
<path class="pie ameIndian" fill-rule="evenodd" clip-rule="evenodd" fill="#E5F0D5" stroke="#000000" stroke-width="0.75" d="M125.318,162.238
	l6.855,118.553c-2.837,0.102-4.972,0.155-7.655,0.266L125.318,162.238"/>
<path fill-rule="evenodd" clip-rule="evenodd" fill="#FFFFFF" stroke="#000000" stroke-width="0.75" d="M124.919,221.488
	c-33.212-0.191-59.624-26.788-59.552-59.649c0.371-33.123,27.139-59.365,60.352-59.169c33.195,0.244,59.608,26.841,59.232,59.964
	C184.883,195.495,158.115,221.738,124.919,221.488"/>
<rect x="145.746" y="177.167" fill="none" width="78" height="49.333"/>
<text class="ell" transform="matrix(1 0 0 1 106.746 171.339)" font-family="'Arial-BoldMT'" font-size="17">ELL</text>
</svg>